<svg width="15" height="15" viewBox="0 0 15 15" fill="none" xmlns="http://www.w3.org/2000/svg">
<g clip-path="url(#clip0_57_37)">
<path d="M14.6637 11.8544L12.3472 9.53762C11.8858 9.07807 11.1217 9.09203 10.6442 9.56968L9.47714 10.7365C9.40341 10.6959 9.32709 10.6534 9.24685 10.6084C8.50986 10.2 7.50116 9.64032 6.43971 8.57809C5.37512 7.51363 4.8149 6.50338 4.40529 5.76591C4.36207 5.68778 4.32065 5.61246 4.27976 5.54092L5.06303 4.75881L5.44812 4.37325C5.92633 3.89491 5.93952 3.13102 5.47919 2.67013L3.16268 0.353103C2.70235 -0.10714 1.93791 -0.0931779 1.45969 0.385165L0.806819 1.04179L0.82466 1.0595C0.605743 1.33883 0.422809 1.661 0.286676 2.00843C0.161186 2.33913 0.083057 2.65471 0.0473321 2.97093C-0.258548 5.50675 0.900247 7.82429 4.04507 10.9692C8.39217 15.316 11.8954 14.9876 12.0465 14.9715C12.3756 14.9322 12.6911 14.8536 13.0117 14.7291C13.3561 14.5945 13.678 14.4118 13.9572 14.1934L13.9714 14.2061L14.6329 13.5584C15.1101 13.0802 15.1238 12.316 14.6637 11.8544Z" fill="#D9C5B2"/>
</g>
<defs>
<clipPath id="clip0_57_37">
<rect width="15" height="15" fill="white"/>
</clipPath>
</defs>
</svg>
