<svg width="65" height="19" viewBox="0 0 65 19" fill="none" xmlns="http://www.w3.org/2000/svg">
<path d="M1.92188 18.1641C1.28125 18.1641 0.800781 18.0195 0.480469 17.7305C0.160156 17.4336 0 17.0195 0 16.4883C0 16.0742 0.09375 15.7266 0.28125 15.4453C0.46875 15.1641 0.726562 15.0234 1.05469 15.0234C1.05469 15.1328 1.07812 15.2539 1.125 15.3867C1.17188 15.5117 1.24219 15.6328 1.33594 15.75C1.4375 15.8594 1.5625 15.9531 1.71094 16.0312C1.85938 16.1094 2.03125 16.1484 2.22656 16.1484C2.44531 16.1484 2.65625 16.1172 2.85938 16.0547C3.0625 15.9844 3.26172 15.832 3.45703 15.5977C3.65234 15.3633 3.84375 15.0234 4.03125 14.5781C4.22656 14.1328 4.42578 13.5312 4.62891 12.7734C4.76953 12.2578 4.89844 11.6953 5.01562 11.0859C5.13281 10.4766 5.23828 9.85156 5.33203 9.21094C5.43359 8.57031 5.51953 7.9375 5.58984 7.3125C5.66797 6.67969 5.73047 6.08203 5.77734 5.51953C5.83203 4.95703 5.87109 4.44531 5.89453 3.98438C5.91797 3.52344 5.92969 3.14844 5.92969 2.85938C5.92969 2.64062 5.87891 2.46484 5.77734 2.33203C5.67578 2.19922 5.53516 2.10156 5.35547 2.03906C5.18359 1.96875 4.98047 1.92578 4.74609 1.91016C4.51953 1.88672 4.27344 1.875 4.00781 1.875H3.64453V0.867188H15.9375V1.875H15.6211C15.3477 1.875 15.0898 1.89453 14.8477 1.93359C14.6133 1.97266 14.4062 2.05469 14.2266 2.17969C14.0547 2.29688 13.9141 2.46875 13.8047 2.69531C13.7031 2.92188 13.6523 3.22266 13.6523 3.59766V15.2695C13.6523 15.6445 13.7031 15.9453 13.8047 16.1719C13.9141 16.3984 14.0547 16.5742 14.2266 16.6992C14.4062 16.8164 14.6133 16.8945 14.8477 16.9336C15.0898 16.9727 15.3477 16.9922 15.6211 16.9922H15.9375V18H8.95312V16.9922H9.26953C9.53516 16.9922 9.78516 16.9727 10.0195 16.9336C10.2617 16.8945 10.4727 16.8164 10.6523 16.6992C10.832 16.5742 10.9727 16.3984 11.0742 16.1719C11.1758 15.9453 11.2266 15.6445 11.2266 15.2695V2.0625H7.32422C7.27734 3.0625 7.20312 4.11328 7.10156 5.21484C7 6.30859 6.875 7.39844 6.72656 8.48438C6.58594 9.5625 6.41797 10.6016 6.22266 11.6016C6.03516 12.5938 5.82422 13.4883 5.58984 14.2852C5.37109 15.0117 5.14062 15.625 4.89844 16.125C4.66406 16.6172 4.39844 17.0156 4.10156 17.3203C3.8125 17.625 3.48828 17.8438 3.12891 17.9766C2.76953 18.1016 2.36719 18.1641 1.92188 18.1641ZM33.293 9.41016C33.293 10.7305 33.1289 11.9336 32.8008 13.0195C32.4727 14.1055 31.9883 15.0352 31.3477 15.8086C30.707 16.582 29.918 17.1797 28.9805 17.6016C28.043 18.0234 26.9688 18.2344 25.7578 18.2344C24.4844 18.2344 23.375 18.0234 22.4297 17.6016C21.4844 17.1797 20.6992 16.582 20.0742 15.8086C19.4492 15.0352 18.9805 14.1055 18.668 13.0195C18.3555 11.9258 18.1992 10.7148 18.1992 9.38672C18.1992 8.05859 18.3555 6.85547 18.668 5.77734C18.9805 4.69141 19.4492 3.76562 20.0742 3C20.6992 2.23438 21.4883 1.64453 22.4414 1.23047C23.3945 0.808594 24.5078 0.597656 25.7812 0.597656C26.9922 0.597656 28.0625 0.808594 28.9922 1.23047C29.9219 1.64453 30.707 2.23828 31.3477 3.01172C31.9883 3.77734 32.4727 4.70312 32.8008 5.78906C33.1289 6.86719 33.293 8.07422 33.293 9.41016ZM20.8594 9.41016C20.8594 10.5977 20.9453 11.6602 21.1172 12.5977C21.2969 13.5273 21.582 14.3164 21.9727 14.9648C22.3633 15.6055 22.8672 16.0977 23.4844 16.4414C24.1094 16.7773 24.8672 16.9453 25.7578 16.9453C26.6484 16.9453 27.4023 16.7773 28.0195 16.4414C28.6445 16.0977 29.1484 15.6055 29.5312 14.9648C29.9219 14.3164 30.2031 13.5273 30.375 12.5977C30.5469 11.6602 30.6328 10.5977 30.6328 9.41016C30.6328 8.22266 30.5469 7.16406 30.375 6.23438C30.2031 5.29688 29.9219 4.50781 29.5312 3.86719C29.1484 3.22656 28.6484 2.73828 28.0312 2.40234C27.4219 2.06641 26.6719 1.89844 25.7812 1.89844C24.8906 1.89844 24.1328 2.06641 23.5078 2.40234C22.8828 2.73828 22.3711 3.22656 21.9727 3.86719C21.582 4.50781 21.2969 5.29688 21.1172 6.23438C20.9453 7.16406 20.8594 8.22266 20.8594 9.41016ZM43.043 18H35.5781V16.9922H35.8828C36.1562 16.9922 36.4102 16.9727 36.6445 16.9336C36.8867 16.8945 37.0977 16.8164 37.2773 16.6992C37.457 16.5742 37.5977 16.3984 37.6992 16.1719C37.8008 15.9453 37.8516 15.6445 37.8516 15.2695V3.59766C37.8516 3.22266 37.8008 2.92188 37.6992 2.69531C37.5977 2.46875 37.457 2.29688 37.2773 2.17969C37.0977 2.05469 36.8867 1.97266 36.6445 1.93359C36.4102 1.89453 36.1562 1.875 35.8828 1.875H35.5781V0.867188H47.5078L47.6484 5.0625H46.3945L46.3008 4.21875C46.2617 3.88281 46.1992 3.58203 46.1133 3.31641C46.0352 3.05078 45.9102 2.82422 45.7383 2.63672C45.5664 2.44922 45.332 2.30859 45.0352 2.21484C44.7461 2.11328 44.3672 2.0625 43.8984 2.0625H40.2773V15.3633C40.2773 15.7148 40.3281 16 40.4297 16.2188C40.5391 16.4297 40.6836 16.5938 40.8633 16.7109C41.043 16.8281 41.25 16.9062 41.4844 16.9453C41.7266 16.9766 41.9805 16.9922 42.2461 16.9922H43.043V18ZM64.0898 9.41016C64.0898 10.7305 63.9258 11.9336 63.5977 13.0195C63.2695 14.1055 62.7852 15.0352 62.1445 15.8086C61.5039 16.582 60.7148 17.1797 59.7773 17.6016C58.8398 18.0234 57.7656 18.2344 56.5547 18.2344C55.2812 18.2344 54.1719 18.0234 53.2266 17.6016C52.2812 17.1797 51.4961 16.582 50.8711 15.8086C50.2461 15.0352 49.7773 14.1055 49.4648 13.0195C49.1523 11.9258 48.9961 10.7148 48.9961 9.38672C48.9961 8.05859 49.1523 6.85547 49.4648 5.77734C49.7773 4.69141 50.2461 3.76562 50.8711 3C51.4961 2.23438 52.2852 1.64453 53.2383 1.23047C54.1914 0.808594 55.3047 0.597656 56.5781 0.597656C57.7891 0.597656 58.8594 0.808594 59.7891 1.23047C60.7188 1.64453 61.5039 2.23828 62.1445 3.01172C62.7852 3.77734 63.2695 4.70312 63.5977 5.78906C63.9258 6.86719 64.0898 8.07422 64.0898 9.41016ZM51.6562 9.41016C51.6562 10.5977 51.7422 11.6602 51.9141 12.5977C52.0938 13.5273 52.3789 14.3164 52.7695 14.9648C53.1602 15.6055 53.6641 16.0977 54.2812 16.4414C54.9062 16.7773 55.6641 16.9453 56.5547 16.9453C57.4453 16.9453 58.1992 16.7773 58.8164 16.4414C59.4414 16.0977 59.9453 15.6055 60.3281 14.9648C60.7188 14.3164 61 13.5273 61.1719 12.5977C61.3438 11.6602 61.4297 10.5977 61.4297 9.41016C61.4297 8.22266 61.3438 7.16406 61.1719 6.23438C61 5.29688 60.7188 4.50781 60.3281 3.86719C59.9453 3.22656 59.4453 2.73828 58.8281 2.40234C58.2188 2.06641 57.4688 1.89844 56.5781 1.89844C55.6875 1.89844 54.9297 2.06641 54.3047 2.40234C53.6797 2.73828 53.168 3.22656 52.7695 3.86719C52.3789 4.50781 52.0938 5.29688 51.9141 6.23438C51.7422 7.16406 51.6562 8.22266 51.6562 9.41016Z" fill="white"/>
</svg>
